  0
SECTION
  2
HEADER
  9
$ACADVER
  1
AC1009
  9
$INSBASE
 10
0.0
 20
0.0
 30
0.0
  9
$EXTMIN
 10
2573.5382888470580838
 20
1520.1907427250139335
 30
0.0
  9
$EXTMAX
 10
3678.4361627785119708
 20
1994.3561897310369204
 30
0.0
  9
$LIMMIN
 10
0.0
 20
0.0
  9
$LIMMAX
 10
420.0
 20
297.0
  9
$ORTHOMODE
 70
     0
  9
$REGENMODE
 70
     1
  9
$FILLMODE
 70
     1
  9
$QTEXTMODE
 70
     0
  9
$MIRRTEXT
 70
     0
  9
$DRAGMODE
 70
     2
  9
$LTSCALE
 40
1.0
  9
$OSMODE
 70
  1071
  9
$ATTMODE
 70
     1
  9
$TEXTSIZE
 40
2.5
  9
$TRACEWID
 40
1.0
  9
$TEXTSTYLE
  7
STANDARD
  9
$CLAYER
  8
0
  9
$CELTYPE
  6
BYLAYER
  9
$CECOLOR
 62
   256
  9
$DIMSCALE
 40
1.0
  9
$DIMASZ
 40
2.5
  9
$DIMEXO
 40
0.625
  9
$DIMDLI
 40
3.75
  9
$DIMRND
 40
0.0
  9
$DIMDLE
 40
0.0
  9
$DIMEXE
 40
1.25
  9
$DIMTP
 40
0.0
  9
$DIMTM
 40
0.0
  9
$DIMTXT
 40
2.5
  9
$DIMCEN
 40
2.5
  9
$DIMTSZ
 40
0.0
  9
$DIMTOL
 70
     0
  9
$DIMLIM
 70
     0
  9
$DIMTIH
 70
     0
  9
$DIMTOH
 70
     0
  9
$DIMSE1
 70
     0
  9
$DIMSE2
 70
     0
  9
$DIMTAD
 70
     1
  9
$DIMZIN
 70
     8
  9
$DIMBLK
  1

  9
$DIMASO
 70
     1
  9
$DIMSHO
 70
     1
  9
$DIMPOST
  1

  9
$DIMAPOST
  1

  9
$DIMALT
 70
     0
  9
$DIMALTD
 70
     3
  9
$DIMALTF
 40
0.03937007874016
  9
$DIMLFAC
 40
1.0
  9
$DIMTOFL
 70
     1
  9
$DIMTVP
 40
0.0
  9
$DIMTIX
 70
     0
  9
$DIMSOXD
 70
     0
  9
$DIMSAH
 70
     0
  9
$DIMBLK1
  1

  9
$DIMBLK2
  1

  9
$DIMSTYLE
  2
ISO-25
  9
$DIMCLRD
 70
     0
  9
$DIMCLRE
 70
     0
  9
$DIMCLRT
 70
     0
  9
$DIMTFAC
 40
1.0
  9
$DIMGAP
 40
0.625
  9
$LUNITS
 70
     2
  9
$LUPREC
 70
     4
  9
$SKETCHINC
 40
1.0
  9
$FILLETRAD
 40
0.0
  9
$AUNITS
 70
     0
  9
$AUPREC
 70
     0
  9
$MENU
  1
.
  9
$ELEVATION
 40
0.0
  9
$PELEVATION
 40
0.0
  9
$THICKNESS
 40
0.0
  9
$LIMCHECK
 70
     0
  9
$BLIPMODE
 70
     0
  9
$CHAMFERA
 40
0.0
  9
$CHAMFERB
 40
0.0
  9
$SKPOLY
 70
     0
  9
$TDCREATE
 40
2461231.6063657412305474
  9
$TDUPDATE
 40
2461277.79741898085922
  9
$TDINDWG
 40
0.0450925926
  9
$TDUSRTIMER
 40
0.0450925926
  9
$USRTIMER
 70
     1
  9
$ANGBASE
 50
0.0
  9
$ANGDIR
 70
     0
  9
$PDMODE
 70
     0
  9
$PDSIZE
 40
0.0
  9
$PLINEWID
 40
0.0
  9
$COORDS
 70
     1
  9
$SPLFRAME
 70
     0
  9
$SPLINETYPE
 70
     6
  9
$SPLINESEGS
 70
     8
  9
$ATTDIA
 70
     1
  9
$ATTREQ
 70
     1
  9
$HANDLING
 70
     1
  9
$HANDSEED
  5
593
  9
$SURFTAB1
 70
     6
  9
$SURFTAB2
 70
     6
  9
$SURFTYPE
 70
     6
  9
$SURFU
 70
     6
  9
$SURFV
 70
     6
  9
$UCSNAME
  2

  9
$UCSORG
 10
0.0
 20
0.0
 30
0.0
  9
$UCSXDIR
 10
1.0
 20
0.0
 30
0.0
  9
$UCSYDIR
 10
0.0
 20
1.0
 30
0.0
  9
$PUCSNAME
  2

  9
$PUCSORG
 10
0.0
 20
0.0
 30
0.0
  9
$PUCSXDIR
 10
1.0
 20
0.0
 30
0.0
  9
$PUCSYDIR
 10
0.0
 20
1.0
 30
0.0
  9
$USERI1
 70
     0
  9
$USERI2
 70
     0
  9
$USERI3
 70
     0
  9
$USERI4
 70
     0
  9
$USERI5
 70
     0
  9
$USERR1
 40
0.0
  9
$USERR2
 40
0.0
  9
$USERR3
 40
0.0
  9
$USERR4
 40
0.0
  9
$USERR5
 40
0.0
  9
$WORLDVIEW
 70
     1
  9
$SHADEDGE
 70
     3
  9
$SHADEDIF
 70
    70
  9
$TILEMODE
 70
     1
  9
$MAXACTVP
 70
    64
  9
$PLIMCHECK
 70
     0
  9
$PEXTMIN
 10
0.0
 20
0.0
 30
0.0
  9
$PEXTMAX
 10
0.0
 20
0.0
 30
0.0
  9
$PLIMMIN
 10
0.0
 20
0.0
  9
$PLIMMAX
 10
12.0
 20
9.0
  9
$UNITMODE
 70
     0
  9
$VISRETAIN
 70
     1
  9
$PLINEGEN
 70
     0
  9
$PSLTSCALE
 70
     1
  0
ENDSEC
  0
SECTION
  2
TABLES
  0
TABLE
  2
VPORT
 70
     1
  0
VPORT
  2
*ACTIVE
 70
     0
 10
0.0
 20
0.0
 11
1.0
 21
1.0
 12
3121.3817368989512033
 22
1758.3235848067190545
 13
0.0
 23
0.0
 14
10.0
 24
10.0
 15
10.0
 25
10.0
 16
0.0
 26
0.0
 36
1.0
 17
0.0
 27
0.0
 37
0.0
 40
648.5940611891999197
 41
2.5708502024291491
 42
50.0
 43
0.0
 44
0.0
 50
0.0
 51
0.0
 71
     0
 72
  1000
 73
     1
 74
     3
 75
     0
 76
     1
 77
     0
 78
     0
  0
ENDTAB
  0
TABLE
  2
LTYPE
 70
     1
  0
LTYPE
  2
CONTINUOUS
 70
     0
  3
Solid line
 72
    65
 73
     0
 40
0.0
  0
ENDTAB
  0
TABLE
  2
LAYER
 70
     2
  0
LAYER
  2
0
 70
     0
 62
     7
  6
CONTINUOUS
  0
LAYER
  2
DEFPOINTS
 70
     0
 62
     7
  6
CONTINUOUS
  0
ENDTAB
  0
TABLE
  2
STYLE
 70
     2
  0
STYLE
  2
STANDARD
 70
     0
 40
0.0
 41
1.0
 50
0.0
 71
     0
 42
2.5
  3
txt
  4

  0
STYLE
  2
ANNOTATIVE
 70
     0
 40
0.0
 41
1.0
 50
0.0
 71
     0
 42
2.5
  3
txt
  4

  0
ENDTAB
  0
TABLE
  2
VIEW
 70
     0
  0
ENDTAB
  0
TABLE
  2
UCS
 70
     0
  0
ENDTAB
  0
TABLE
  2
APPID
 70
    11
  0
APPID
  2
ACAD
 70
     0
  0
APPID
  2
ACAD_PSEXT
 70
     0
  0
APPID
  2
ACADANNOPO
 70
     0
  0
APPID
  2
ACADANNOTATIVE
 70
     0
  0
APPID
  2
ACAD_DSTYLE_DIMJAG
 70
     0
  0
APPID
  2
ACAD_DSTYLE_DIMTALN
 70
     0
  0
APPID
  2
ACAD_MLEADERVER
 70
     0
  0
APPID
  2
ACAD_NAV_VCDISPLAY
 70
     0
  0
APPID
  2
ACAD_EXEMPT_FROM_CAD_STANDARDS
 70
     0
  0
APPID
  2
ACAD_TC
 70
     0
  0
APPID
  2
ACADANNOMONITORALERTICONDI
 70
     0
  0
ENDTAB
  0
TABLE
  2
DIMSTYLE
 70
     3
  0
DIMSTYLE
  2
STANDARD
 70
     0
  3

  4

  5

  6

  7

 40
1.0
 41
0.18
 42
0.0625
 43
0.38
 44
0.18
 45
0.0
 46
0.0
 47
0.0
 48
0.0
140
0.18
141
0.09
142
0.0
143
25.3999999999999986
144
1.0
145
0.0
146
1.0
147
0.09
 71
     0
 72
     0
 73
     1
 74
     1
 75
     0
 76
     0
 77
     0
 78
     0
170
     0
171
     2
172
     0
173
     0
174
     0
175
     0
176
     0
177
     0
178
     0
  0
DIMSTYLE
  2
ANNOTATIVE
 70
     0
  3

  4

  5

  6

  7

 40
0.0
 41
2.5
 42
0.625
 43
3.75
 44
1.25
 45
0.0
 46
0.0
 47
0.0
 48
0.0
140
2.5
141
2.5
142
0.0
143
0.03937007874016
144
1.0
145
0.0
146
1.0
147
0.625
 71
     0
 72
     0
 73
     0
 74
     0
 75
     0
 76
     0
 77
     1
 78
     8
170
     0
171
     3
172
     1
173
     0
174
     0
175
     0
176
     0
177
     0
178
     0
  0
DIMSTYLE
  2
ISO-25
 70
     0
  3

  4

  5

  6

  7

 40
1.0
 41
2.5
 42
0.625
 43
3.75
 44
1.25
 45
0.0
 46
0.0
 47
0.0
 48
0.0
140
2.5
141
2.5
142
0.0
143
0.03937007874016
144
1.0
145
0.0
146
1.0
147
0.625
 71
     0
 72
     0
 73
     0
 74
     0
 75
     0
 76
     0
 77
     1
 78
     8
170
     0
171
     3
172
     1
173
     0
174
     0
175
     0
176
     0
177
     0
178
     0
  0
ENDTAB
  0
ENDSEC
  0
SECTION
  2
BLOCKS
  0
BLOCK
  8
0
  2
$MODEL_SPACE
 70
     0
 10
0.0
 20
0.0
 30
0.0
  3
$MODEL_SPACE
  1

  0
ENDBLK
  5
21
  8
0
  0
BLOCK
 67
     1
  8
0
  2
$PAPER_SPACE
 70
     0
 10
0.0
 20
0.0
 30
0.0
  3
$PAPER_SPACE
  1

  0
ENDBLK
  5
D5
 67
     1
  8
0
  0
BLOCK
  8
0
  2
A$CD3BE8428
 70
     0
 10
0.0
 20
0.0
 30
0.0
  3
A$CD3BE8428
  1

  0
LINE
  5
341
  8
0
 10
300.0
 20
0.0
 30
0.0
 11
300.0
 21
50.0
 31
0.0
  0
LINE
  5
342
  8
0
 10
300.0
 20
50.0
 30
0.0
 11
0.0
 21
50.0
 31
0.0
  0
LINE
  5
343
  8
0
 10
0.0
 20
50.0
 30
0.0
 11
0.0
 21
0.0
 31
0.0
  0
LINE
  5
344
  8
0
 10
0.0
 20
0.0
 30
0.0
 11
300.0
 21
0.0
 31
0.0
  0
ENDBLK
  5
347
  8
0
  0
BLOCK
  8
0
  2
*D2
 70
     1
 10
0.0
 20
0.0
 30
0.0
  3
*D2
  1

  0
LINE
  5
41E
  8
0
 62
     0
 10
2896.8628872078811582
 20
1960.6708509069560478
 30
0.0
 11
2896.8628872078811582
 21
1982.0782564648250172
 31
0.0
  0
LINE
  5
41F
  8
0
 62
     0
 10
3196.8628872078811582
 20
1960.6708509069560478
 30
0.0
 11
3196.8628872078811582
 21
1982.0782564648250172
 31
0.0
  0
LINE
  5
420
  8
0
 62
     0
 10
2899.3628872078811582
 20
1980.8282564648250172
 30
0.0
 11
3194.3628872078811582
 21
1980.8282564648250172
 31
0.0
  0
SOLID
  5
421
  8
0
 62
     0
 10
2899.3628872078811582
 20
1981.2449231314919871
 30
0.0
 11
2899.3628872078811582
 21
1980.4115897981580474
 31
0.0
 12
2896.8628872078811582
 22
1980.8282564648250172
 32
0.0
 13
2896.8628872078811582
 23
1980.8282564648250172
 33
0.0
  0
SOLID
  5
422
  8
0
 62
     0
 10
3194.3628872078811582
 20
1981.2449231314919871
 30
0.0
 11
3194.3628872078811582
 21
1980.4115897981580474
 31
0.0
 12
3196.8628872078811582
 22
1980.8282564648250172
 32
0.0
 13
3196.8628872078811582
 23
1980.8282564648250172
 33
0.0
  0
INSERT
  5
423
  8
0
  2
*U6
 10
0.0
 20
0.0
 30
0.0
  0
POINT
  5
424
  8
DEFPOINTS
 62
     0
 10
2896.8628872078811582
 20
1960.0458509069560478
 30
0.0
  0
POINT
  5
425
  8
DEFPOINTS
 62
     0
 10
3196.8628872078811582
 20
1960.0458509069560478
 30
0.0
  0
POINT
  5
426
  8
DEFPOINTS
 62
     0
 10
3196.8628872078811582
 20
1980.8282564648250172
 30
0.0
  0
ENDBLK
  5
391
  8
0
  0
BLOCK
  8
0
  2
*D3
 70
     1
 10
0.0
 20
0.0
 30
0.0
  3
*D3
  1

  0
LINE
  5
45A
  8
0
 62
     0
 10
3196.8628872078811582
 20
1960.6708509069560478
 30
0.0
 11
3196.8628872078811582
 21
1982.1640000993870672
 31
0.0
  0
LINE
  5
45B
  8
0
 62
     0
 10
3496.8628872078811582
 20
1960.6708509069560478
 30
0.0
 11
3496.8628872078811582
 21
1982.1640000993870672
 31
0.0
  0
LINE
  5
45C
  8
0
 62
     0
 10
3199.3628872078811582
 20
1980.9140000993870672
 30
0.0
 11
3494.3628872078811582
 21
1980.9140000993870672
 31
0.0
  0
SOLID
  5
45D
  8
0
 62
     0
 10
3199.3628872078811582
 20
1981.3306667660529001
 30
0.0
 11
3199.3628872078811582
 21
1980.4973334327200973
 31
0.0
 12
3196.8628872078811582
 22
1980.9140000993870672
 32
0.0
 13
3196.8628872078811582
 23
1980.9140000993870672
 33
0.0
  0
SOLID
  5
45E
  8
0
 62
     0
 10
3494.3628872078811582
 20
1981.3306667660529001
 30
0.0
 11
3494.3628872078811582
 21
1980.4973334327200973
 31
0.0
 12
3496.8628872078811582
 22
1980.9140000993870672
 32
0.0
 13
3496.8628872078811582
 23
1980.9140000993870672
 33
0.0
  0
INSERT
  5
45F
  8
0
  2
*U7
 10
0.0
 20
0.0
 30
0.0
  0
POINT
  5
460
  8
DEFPOINTS
 62
     0
 10
3196.8628872078811582
 20
1960.0458509069560478
 30
0.0
  0
POINT
  5
461
  8
DEFPOINTS
 62
     0
 10
3496.8628872078811582
 20
1960.0458509069560478
 30
0.0
  0
POINT
  5
462
  8
DEFPOINTS
 62
     0
 10
3496.8628872078811582
 20
1980.9140000993870672
 30
0.0
  0
ENDBLK
  5
42A
  8
0
  0
BLOCK
  8
0
  2
*D4
 70
     1
 10
0.0
 20
0.0
 30
0.0
  3
*D4
  1

  0
LINE
  5
496
  8
0
 62
     0
 10
3647.9663911135698982
 20
1605.338512527004923
 30
0.0
 11
3677.5212582764670515
 21
1605.338512527004923
 31
0.0
  0
LINE
  5
497
  8
0
 62
     0
 10
3647.9663911135698982
 20
1555.338512527004923
 30
0.0
 11
3677.5212582764670515
 21
1555.338512527004923
 31
0.0
  0
LINE
  5
498
  8
0
 62
     0
 10
3676.2712582764670515
 20
1602.838512527004923
 30
0.0
 11
3676.2712582764670515
 21
1557.838512527004923
 31
0.0
  0
SOLID
  5
499
  8
0
 62
     0
 10
3675.8545916098009911
 20
1602.838512527004923
 30
0.0
 11
3676.6879249431331118
 21
1602.838512527004923
 31
0.0
 12
3676.2712582764670515
 22
1605.338512527004923
 32
0.0
 13
3676.2712582764670515
 23
1605.338512527004923
 33
0.0
  0
SOLID
  5
49A
  8
0
 62
     0
 10
3675.8545916098009911
 20
1557.838512527004923
 30
0.0
 11
3676.6879249431331118
 21
1557.838512527004923
 31
0.0
 12
3676.2712582764670515
 22
1555.338512527004923
 32
0.0
 13
3676.2712582764670515
 23
1555.338512527004923
 33
0.0
  0
INSERT
  5
49B
  8
0
  2
*U8
 10
0.0
 20
0.0
 30
0.0
  0
POINT
  5
49C
  8
DEFPOINTS
 62
     0
 10
3647.3413911135698982
 20
1605.338512527004923
 30
0.0
  0
POINT
  5
49D
  8
DEFPOINTS
 62
     0
 10
3647.3413911135698982
 20
1555.338512527004923
 30
0.0
  0
POINT
  5
49E
  8
DEFPOINTS
 62
     0
 10
3676.2712582764670515
 20
1555.338512527004923
 30
0.0
  0
ENDBLK
  5
466
  8
0
  0
BLOCK
  8
0
  2
*D5
 70
     1
 10
0.0
 20
0.0
 30
0.0
  3
*D5
  1

  0
LINE
  5
4B9
  8
0
 62
     0
 10
2745.3719937979280985
 20
1535.7130158472421044
 30
0.0
 11
2745.3719937979280985
 21
1520.1907427250139335
 31
0.0
  0
LINE
  5
4BA
  8
0
 62
     0
 10
3045.3719937979280985
 20
1535.7130158472421044
 30
0.0
 11
3045.3719937979280985
 21
1520.1907427250139335
 31
0.0
  0
LINE
  5
4BB
  8
0
 62
     0
 10
2747.8719937979280985
 20
1521.4407427250139335
 30
0.0
 11
3042.8719937979280985
 21
1521.4407427250139335
 31
0.0
  0
SOLID
  5
4BC
  8
0
 62
     0
 10
2747.8719937979280985
 20
1521.8574093916809034
 30
0.0
 11
2747.8719937979280985
 21
1521.0240760583469637
 31
0.0
 12
2745.3719937979280985
 22
1521.4407427250139335
 32
0.0
 13
2745.3719937979280985
 23
1521.4407427250139335
 33
0.0
  0
SOLID
  5
4BD
  8
0
 62
     0
 10
3042.8719937979280985
 20
1521.8574093916809034
 30
0.0
 11
3042.8719937979280985
 21
1521.0240760583469637
 31
0.0
 12
3045.3719937979280985
 22
1521.4407427250139335
 32
0.0
 13
3045.3719937979280985
 23
1521.4407427250139335
 33
0.0
  0
INSERT
  5
4BE
  8
0
  2
*U9
 10
0.0
 20
0.0
 30
0.0
  0
POINT
  5
4BF
  8
DEFPOINTS
 62
     0
 10
2745.3719937979280985
 20
1536.3380158472421044
 30
0.0
  0
POINT
  5
4C0
  8
DEFPOINTS
 62
     0
 10
3045.3719937979280985
 20
1536.3380158472421044
 30
0.0
  0
POINT
  5
4C1
  8
DEFPOINTS
 62
     0
 10
3045.3719937979280985
 20
1521.4407427250139335
 30
0.0
  0
ENDBLK
  5
4AE
  8
0
  0
BLOCK
  8
0
  2
*U6
 70
     1
 10
0.0
 20
0.0
 30
0.0
  3
*U6
  1

  0
TEXT
  5
584
  8
0
 62
     0
 10
3035.4542923920548674
 20
1981.6237885248519888
 30
0.0
 40
10.0
  1
400
  0
ENDBLK
  5
586
  8
0
  0
BLOCK
  8
0
  2
*U7
 70
     1
 10
0.0
 20
0.0
 30
0.0
  3
*U7
  1

  0
TEXT
  5
588
  8
0
 62
     0
 10
3335.4542923920557769
 20
1981.7095321594129018
 30
0.0
 40
10.0
  1
400
  0
ENDBLK
  5
58A
  8
0
  0
BLOCK
  8
0
  2
*U8
 70
     1
 10
0.0
 20
0.0
 30
0.0
  3
*U8
  1

  0
TEXT
  5
58C
  8
0
 62
     0
 10
3675.4757262164389431
 20
1572.640695337372108
 30
0.0
 40
10.0
  1
60
 50
90.0
  0
ENDBLK
  5
58E
  8
0
  0
BLOCK
  8
0
  2
*U9
 70
     1
 10
0.0
 20
0.0
 30
0.0
  3
*U9
  1

  0
TEXT
  5
590
  8
0
 62
     0
 10
2892.4686854759629568
 20
1522.1100810606219511
 30
0.0
 40
2.5
  1
300
  0
ENDBLK
  5
592
  8
0
  0
ENDSEC
  0
SECTION
  2
ENTITIES
  0
POLYLINE
  5
2E4
  8
0
 66
     1
 10
0.0
 20
0.0
 30
0.0
 70
     1
  0
VERTEX
  5
517
  8
0
 10
2723.5382888470580838
 20
1660.0458509069549109
 30
0.0
  0
VERTEX
  5
518
  8
0
 10
2703.5382888470580838
 20
1660.0458509069549109
 30
0.0
  0
VERTEX
  5
519
  8
0
 10
2573.5382888470580838
 20
1600.0458509069560478
 30
0.0
  0
VERTEX
  5
51A
  8
0
 10
2873.5382888470580838
 20
1600.0458509069560478
 30
0.0
  0
VERTEX
  5
51B
  8
0
 10
2743.5382888470580838
 20
1660.0458509069549109
 30
0.0
  0
SEQEND
  5
51C
  8
0
  0
POLYLINE
  5
2EB
  8
0
 66
     1
 10
0.0
 20
0.0
 30
0.0
 70
     1
  0
VERTEX
  5
51D
  8
0
 10
2896.8628872078811582
 20
1600.0458509069560478
 30
0.0
  0
VERTEX
  5
51E
  8
0
 10
2876.8628872078811582
 20
1600.0458509069560478
 30
0.0
  0
VERTEX
  5
51F
  8
0
 10
2746.8628872078811582
 20
1660.0458509069549109
 30
0.0
  0
VERTEX
  5
520
  8
0
 10
3046.8628872078811582
 20
1660.0458509069549109
 30
0.0
  0
VERTEX
  5
521
  8
0
 10
2916.8628872078811582
 20
1600.0458509069560478
 30
0.0
  0
SEQEND
  5
522
  8
0
  0
POLYLINE
  5
2F3
  8
0
 66
     1
 10
0.0
 20
0.0
 30
0.0
 70
     1
  0
VERTEX
  5
523
  8
0
 10
2895.3719937979280985
 20
1596.3380158472421044
 30
0.0
  0
VERTEX
  5
524
  8
0
 10
2875.3719937979280985
 20
1596.3380158472421044
 30
0.0
  0
VERTEX
  5
525
  8
0
 10
2745.3719937979280985
 20
1536.3380158472421044
 30
0.0
  0
VERTEX
  5
526
  8
0
 10
3045.3719937979280985
 20
1536.3380158472421044
 30
0.0
  0
VERTEX
  5
527
  8
0
 10
2915.3719937979280985
 20
1596.3380158472421044
 30
0.0
  0
SEQEND
  5
528
  8
0
  0
POLYLINE
  5
2F4
  8
0
 66
     1
 10
0.0
 20
0.0
 30
0.0
 70
     1
  0
VERTEX
  5
529
  8
0
 10
2723.5382888470580838
 20
1536.3380158472421044
 30
0.0
  0
VERTEX
  5
52A
  8
0
 10
2703.5382888470580838
 20
1536.3380158472421044
 30
0.0
  0
VERTEX
  5
52B
  8
0
 10
2573.5382888470580838
 20
1596.3380158472421044
 30
0.0
  0
VERTEX
  5
52C
  8
0
 10
2873.5382888470580838
 20
1596.3380158472421044
 30
0.0
  0
VERTEX
  5
52D
  8
0
 10
2743.5382888470580838
 20
1536.3380158472421044
 30
0.0
  0
SEQEND
  5
52E
  8
0
  0
POLYLINE
  5
321
  8
0
 66
     1
 10
0.0
 20
0.0
 30
0.0
 70
     1
  0
VERTEX
  5
52F
  8
0
 10
3646.8628872078811582
 20
1660.0458509069549109
 30
0.0
  0
VERTEX
  5
530
  8
0
 10
3346.8628872078811582
 20
1660.0458509069549109
 30
0.0
  0
VERTEX
  5
531
  8
0
 10
3346.8628872078811582
 20
1610.0458509069560478
 30
0.0
  0
VERTEX
  5
532
  8
0
 10
3646.8628872078811582
 20
1610.0458509069560478
 30
0.0
  0
SEQEND
  5
533
  8
0
  0
POLYLINE
  5
322
  8
0
 66
     1
 10
0.0
 20
0.0
 30
0.0
 70
     1
  0
VERTEX
  5
534
  8
0
 10
3647.3413911135689887
 20
1605.3385125270040135
 30
0.0
  0
VERTEX
  5
535
  8
0
 10
3347.3413911135689887
 20
1605.3385125270040135
 30
0.0
  0
VERTEX
  5
536
  8
0
 10
3347.3413911135689887
 20
1555.3385125270040135
 30
0.0
  0
VERTEX
  5
537
  8
0
 10
3647.3413911135689887
 20
1555.3385125270040135
 30
0.0
  0
SEQEND
  5
538
  8
0
  0
POLYLINE
  5
323
  8
0
 66
     1
 10
0.0
 20
0.0
 30
0.0
 70
     1
  0
VERTEX
  5
539
  8
0
 10
3347.3413911135689887
 20
1605.3385125270040135
 30
0.0
  0
VERTEX
  5
53A
  8
0
 10
3047.3413911135689887
 20
1605.3385125270040135
 30
0.0
  0
VERTEX
  5
53B
  8
0
 10
3047.3413911135689887
 20
1555.3385125270040135
 30
0.0
  0
VERTEX
  5
53C
  8
0
 10
3347.3413911135689887
 20
1555.3385125270040135
 30
0.0
  0
SEQEND
  5
53D
  8
0
  0
POLYLINE
  5
324
  8
0
 66
     1
 10
0.0
 20
0.0
 30
0.0
 70
     1
  0
VERTEX
  5
53E
  8
0
 10
3346.8628872078811582
 20
1660.0458509069549109
 30
0.0
  0
VERTEX
  5
53F
  8
0
 10
3046.8628872078811582
 20
1660.0458509069549109
 30
0.0
  0
VERTEX
  5
540
  8
0
 10
3046.8628872078811582
 20
1610.0458509069560478
 30
0.0
  0
VERTEX
  5
541
  8
0
 10
3346.8628872078811582
 20
1610.0458509069560478
 30
0.0
  0
SEQEND
  5
542
  8
0
  0
POLYLINE
  5
329
  8
0
 66
     1
 10
0.0
 20
0.0
 30
0.0
 70
     1
  0
VERTEX
  5
543
  8
0
 10
3196.8628872078811582
 20
1660.0458509069549109
 30
0.0
  0
VERTEX
  5
544
  8
0
 10
3196.8628872078811582
 20
1960.0458509069560478
 30
0.0
  0
VERTEX
  5
545
  8
0
 10
2896.8628872078811582
 20
1960.0458509069560478
 30
0.0
  0
VERTEX
  5
546
  8
0
 10
2896.8628872078811582
 20
1660.0458509069549109
 30
0.0
  0
SEQEND
  5
547
  8
0
  0
LINE
  5
32D
  8
0
 10
2971.8628872078811582
 20
1810.0458509069560478
 30
0.0
 11
2971.8628872078811582
 21
1760.0458509069560478
 31
0.0
  0
POLYLINE
  5
337
  8
0
 66
     1
 10
0.0
 20
0.0
 30
0.0
  0
VERTEX
  5
548
  8
0
 10
3196.8628872078811582
 20
1860.0458509069560478
 30
0.0
  0
VERTEX
  5
549
  8
0
 10
3121.8628872078811582
 20
1860.0458509069560478
 30
0.0
  0
VERTEX
  5
54A
  8
0
 10
3121.8628872078811582
 20
1760.0458509069560478
 30
0.0
  0
VERTEX
  5
54B
  8
0
 10
3196.8628872078811582
 20
1760.0458509069560478
 30
0.0
  0
SEQEND
  5
54C
  8
0
  0
POLYLINE
  5
338
  8
0
 66
     1
 10
0.0
 20
0.0
 30
0.0
  0
VERTEX
  5
54D
  8
0
 10
2896.8628872078811582
 20
1860.0458509069560478
 30
0.0
  0
VERTEX
  5
54E
  8
0
 10
2971.8628872078811582
 20
1860.0458509069560478
 30
0.0
  0
VERTEX
  5
54F
  8
0
 10
2971.8628872078811582
 20
1760.0458509069560478
 30
0.0
  0
VERTEX
  5
550
  8
0
 10
2896.8628872078811582
 20
1760.0458509069560478
 30
0.0
  0
SEQEND
  5
551
  8
0
  0
POLYLINE
  5
33F
  8
0
 66
     1
 10
0.0
 20
0.0
 30
0.0
 70
     1
  0
VERTEX
  5
552
  8
0
 10
2693.3776297566341782
 20
1660.0458509069549109
 30
0.0
  0
VERTEX
  5
553
  8
0
 10
2883.0412470791170563
 20
1733.7612649270299698
 30
0.0
  0
VERTEX
  5
554
  8
0
 10
2679.5559896278709857
 20
1733.7612649270299698
 30
0.0
  0
SEQEND
  5
555
  8
0
  0
POLYLINE
  5
34E
  8
0
 66
     1
 10
0.0
 20
0.0
 30
0.0
 70
     1
  0
VERTEX
  5
556
  8
0
 10
2883.0412470791170563
 20
1733.7612649270299698
 30
0.0
  0
VERTEX
  5
557
  8
0
 10
2693.3776297566341782
 20
1660.0458509069549109
 30
0.0
  0
VERTEX
  5
558
  8
0
 10
2896.8628872078811582
 20
1660.0458509069549109
 30
0.0
  0
SEQEND
  5
559
  8
0
  0
POLYLINE
  5
353
  8
0
 66
     1
 10
0.0
 20
0.0
 30
0.0
 70
     1
  0
VERTEX
  5
55A
  8
0
 10
2764.4397643641318609
 20
1733.6881732366418873
 30
0.0
  0
VERTEX
  5
55B
  8
0
 10
2872.9520907966830237
 20
1777.9185362488949522
 30
0.0
  0
VERTEX
  5
55C
  8
0
 10
2755.7716971397030647
 20
1777.8454445585070971
 30
0.0
  0
SEQEND
  5
55D
  8
0
  0
POLYLINE
  5
35A
  8
0
 66
     1
 10
0.0
 20
0.0
 30
0.0
 70
     1
  0
VERTEX
  5
55E
  8
0
 10
2872.9520907966830237
 20
1777.9185362488949522
 30
0.0
  0
VERTEX
  5
55F
  8
0
 10
2764.4397643641318609
 20
1733.6881732366430242
 30
0.0
  0
VERTEX
  5
560
  8
0
 10
2881.6201580211118198
 20
1733.7612649270299698
 30
0.0
  0
SEQEND
  5
561
  8
0
  0
POLYLINE
  5
35F
  8
0
 66
     1
 10
0.0
 20
0.0
 30
0.0
 70
     1
  0
VERTEX
  5
562
  8
0
 10
2872.9520907966830237
 20
1777.9185362488949522
 30
0.0
  0
VERTEX
  5
563
  8
0
 10
2825.4520907966830237
 20
1837.9185362488949522
 30
0.0
  0
VERTEX
  5
564
  8
0
 10
2777.9520907966830237
 20
1777.9185362488949522
 30
0.0
  0
SEQEND
  5
565
  8
0
  0
POLYLINE
  5
366
  8
0
 66
     1
 10
0.0
 20
0.0
 30
0.0
 70
     1
  0
VERTEX
  5
566
  8
0
 10
2730.2508539998129891
 20
1837.9185362488949522
 30
0.0
  0
VERTEX
  5
567
  8
0
 10
2777.7508539998129891
 20
1777.9185362488949522
 30
0.0
  0
VERTEX
  5
568
  8
0
 10
2825.2508539998129891
 20
1837.9185362488949522
 30
0.0
  0
SEQEND
  5
569
  8
0
  0
POLYLINE
  5
36C
  8
0
 66
     1
 10
0.0
 20
0.0
 30
0.0
 70
     1
  0
VERTEX
  5
56A
  8
0
 10
3496.8628872078811582
 20
1810.0458509069560478
 30
0.0
  0
VERTEX
  5
56B
  8
0
 10
3496.8628872078811582
 20
1660.0458509069549109
 30
0.0
  0
VERTEX
  5
56C
  8
0
 10
3196.8628872078811582
 20
1660.0458509069549109
 30
0.0
  0
VERTEX
  5
56D
  8
0
 10
3196.8628872078811582
 20
1810.0458509069560478
 30
0.0
  0
SEQEND
  5
56E
  8
0
  0
POLYLINE
  5
373
  8
0
 66
     1
 10
0.0
 20
0.0
 30
0.0
 70
     1
  0
VERTEX
  5
56F
  8
0
 10
3366.8628872078811582
 20
1840.0458509069560478
 30
0.0
  0
VERTEX
  5
570
  8
0
 10
3366.8628872078811582
 20
1960.0458509069560478
 30
0.0
  0
VERTEX
  5
571
  8
0
 10
3496.8628872078811582
 20
1960.0458509069560478
 30
0.0
  0
VERTEX
  5
572
  8
0
 10
3496.8628872078811582
 20
1810.0458509069560478
 30
0.0
  0
VERTEX
  5
573
  8
0
 10
3196.8628872078811582
 20
1810.0458509069560478
 30
0.0
  0
VERTEX
  5
574
  8
0
 10
3196.8628872078811582
 20
1960.0458509069560478
 30
0.0
  0
VERTEX
  5
575
  8
0
 10
3326.8628872078811582
 20
1960.0458509069560478
 30
0.0
  0
VERTEX
  5
576
  8
0
 10
3326.8628872078811582
 20
1840.0458509069560478
 30
0.0
  0
VERTEX
  5
577
  8
0
 10
3346.8628872078811582
 20
1840.0458509069560478
 30
0.0
  0
SEQEND
  5
578
  8
0
  0
POLYLINE
  5
37F
  8
0
 66
     1
 10
0.0
 20
0.0
 30
0.0
 70
     1
  0
VERTEX
  5
579
  8
0
 10
3526.8628872078811582
 20
1790.0458509069560478
 30
0.0
  0
VERTEX
  5
57A
  8
0
 10
3646.8628872078811582
 20
1790.0458509069560478
 30
0.0
  0
VERTEX
  5
57B
  8
0
 10
3646.8628872078811582
 20
1660.0458509069549109
 30
0.0
  0
VERTEX
  5
57C
  8
0
 10
3496.8628872078811582
 20
1660.0458509069549109
 30
0.0
  0
VERTEX
  5
57D
  8
0
 10
3496.8628872078811582
 20
1960.0458509069560478
 30
0.0
  0
VERTEX
  5
57E
  8
0
 10
3646.8628872078811582
 20
1960.0458509069560478
 30
0.0
  0
VERTEX
  5
57F
  8
0
 10
3646.8628872078811582
 20
1830.0458509069549109
 30
0.0
  0
VERTEX
  5
580
  8
0
 10
3526.8628872078811582
 20
1830.0458509069549109
 30
0.0
  0
VERTEX
  5
581
  8
0
 10
3526.8628872078811582
 20
1810.0458509069560478
 30
0.0
  0
SEQEND
  5
582
  8
0
  0
DIMENSION
  5
38D
  8
0
  2
*D2
 10
3196.8628872078811582
 20
1980.8282564648250172
 30
0.0
 11
3046.8628872078811582
 21
1986.5589863420420897
 31
0.0
 70
     0
  1
{\H4x;400}
 13
2896.8628872078811582
 23
1960.0458509069560478
 33
0.0
 14
3196.8628872078811582
 24
1960.0458509069560478
 34
0.0
  0
DIMENSION
  5
427
  8
0
  2
*D3
 10
3496.8628872078811582
 20
1980.9140000993870672
 30
0.0
 11
3346.8628872078811582
 21
1986.6447299766030028
 31
0.0
 70
     0
  1
{\H4x;400}
 13
3196.8628872078811582
 23
1960.0458509069560478
 33
0.0
 14
3496.8628872078811582
 24
1960.0458509069560478
 34
0.0
  0
DIMENSION
  5
463
  8
0
  2
*D4
 10
3676.2712582764670515
 20
1555.338512527004923
 30
0.0
 11
3670.540528399249979
 21
1580.3385125270040135
 31
0.0
 70
     0
  1
{\H4x;60}
 13
3647.3413911135689887
 23
1605.3385125270040135
 33
0.0
 14
3647.3413911135689887
 24
1555.3385125270040135
 34
0.0
 50
90.0
  0
DIMENSION
  5
4AB
  8
0
  2
*D5
 10
3045.3719937979280985
 20
1521.4407427250139335
 30
0.0
 11
2895.3719937979280985
 21
1523.3430278546190948
 31
0.0
 70
     0
 13
2745.3719937979280985
 23
1536.3380158472421044
 33
0.0
 14
3045.3719937979280985
 24
1536.3380158472421044
 34
0.0
  0
ENDSEC
  0
EOF
